<?xml version="1.0" standalone="no"?>
<!DOCTYPE svg PUBLIC "-//W3C//DTD SVG 20010904//EN"
 "http://www.w3.org/TR/2001/REC-SVG-20010904/DTD/svg10.dtd">
<svg version="1.0" xmlns="http://www.w3.org/2000/svg"
 width="1000.000000pt" height="1000.000000pt" viewBox="0 0 1000.000000 1000.000000"
 preserveAspectRatio="xMidYMid meet">
<metadata>
Created by potrace 1.11, written by Peter Selinger 2001-2013
</metadata>
<g transform="translate(0.000000,1000.000000) scale(0.100000,-0.100000)"
fill="#000000" stroke="none">
<path d="M4710 9749 c-823 -49 -1632 -320 -2324 -776 -275 -181 -494 -360
-741 -608 -377 -376 -648 -747 -879 -1205 -441 -869 -602 -1815 -476 -2787
102 -783 419 -1562 894 -2201 261 -350 614 -705 972 -974 968 -730 2230 -1063
3437 -908 1246 160 2344 779 3134 1767 548 686 891 1521 1000 2438 25 214 25
806 0 1020 -42 352 -122 712 -226 1017 -696 2034 -2650 3346 -4791 3217z
m-2776 -2733 c18 -7 41 -25 52 -38 10 -14 332 -536 714 -1161 525 -858 698
-1133 706 -1124 7 7 330 526 718 1154 444 716 717 1148 734 1160 19 13 45 18
89 18 72 0 107 -20 136 -76 16 -32 17 -141 15 -1961 l-3 -1927 -34 -35 c-66
-68 -170 -69 -230 -1 -17 20 -32 37 -33 38 -2 1 -5 733 -8 1627 l-5 1624 -629
-1017 c-346 -560 -640 -1026 -654 -1037 -65 -51 -155 -50 -206 3 -17 18 -310
488 -651 1045 l-620 1013 -5 -1628 c-5 -1578 -6 -1629 -24 -1656 -57 -84 -195
-80 -260 6 l-21 28 -3 1916 -2 1916 21 45 c35 71 124 101 203 68z m6142 -2
c50 -24 77 -68 82 -133 4 -62 -17 -105 -71 -145 -28 -21 -30 -21 -1103 -24
l-1074 -2 0 -412 c0 -393 -1 -414 -20 -452 -28 -57 -63 -79 -130 -84 -64 -4
-108 18 -140 70 -20 32 -20 48 -18 570 3 522 4 537 23 564 11 15 36 35 55 45
33 18 85 19 1198 19 1053 0 1167 -2 1198 -16z m-539 -1596 c76 -42 107 -151
61 -218 -13 -19 -39 -45 -57 -57 l-34 -23 -798 0 -799 0 0 -910 0 -910 1074
-2 c1068 -3 1075 -3 1102 -24 54 -40 69 -70 69 -139 0 -73 -20 -109 -76 -137
-32 -17 -110 -18 -1199 -18 -1300 0 -1208 -5 -1257 69 l-23 34 0 1119 c0 1210
-3 1144 53 1196 13 13 37 27 53 32 16 5 427 8 914 7 819 -2 887 -3 917 -19z"/>
</g>
</svg>
